# xmcd
#
# Track frame offsets:
#	150
#	20458
#	44220
#	66920
#	84857
#	103017
#	120480
#	142615
#	159083
#	176687
#	200106
#	223678
#	249179
#
# Disc length: 3587 seconds
#
# Revision: 1
# Processed by: cddbd v1.5.2PL0 Copyright (c) Steve Scherf et al.
# Submitted via: audiograbber 1.83.01
#
DISCID=ac0e010d
DTITLE=All Saints - All Hits
DYEAR=2001
DGENRE=Pop
TTITLE0=Pure Shores
TTITLE1=Never Ever
TTITLE2=Under The Bridge
TTITLE3=Lady Marmalade [98 Remix]
TTITLE4=I Know Where It's At [Original
TTITLE5=Twentyfourseven [Radio Version
TTITLE6=Black Coffee
TTITLE7=Bootie Call [Single Version]
TTITLE8=All Hooked Up [Single Version]
TTITLE9=War Of Nerves [98 Remix]
TTITLE10=Pure Shores [2 Da Beach U Don'
TTITLE11=I Feel You
TTITLE12=Dreams
EXTD=
EXTT0=
EXTT1=
EXTT2=
EXTT3=
EXTT4=
EXTT5=
EXTT6=
EXTT7=
EXTT8=
EXTT9=
EXTT10=
EXTT11=
EXTT12=
PLAYORDER=
